<?xml version="1.0" encoding="UTF-8" standalone="yes"?>
<svg xmlns="http://www.w3.org/2000/svg" xmlns:xlink="http://www.w3.org/1999/xlink" version="1.0" x="0" y="0" width="360" height="240">
<rect width="360" height="240" x="0" y="0" fill="#75aadb" />
<rect width="360" height="40" x="0" y="100" fill="#fcd116" />
  <rect width="40" height="240" x="100" y="0" fill="#fcd116" />
<g transform="translate(120.000000,120.000000)">
<g transform="scale(0.384615)">
<g transform="translate(-210.000000,-265.000000)">

<g transform="matrix(0.734535,0.000000,0.000000,0.926248,-61.36467,-155.1442)"><path d="M 361.59 196.59 C 354.12 196.75 350.04 201.11 352.5 207.06 C 355.63 214.65 372.84 212.06 372.84 204 C 372.84 199.86 370.27 197.47 365 196.78 C 363.8 196.62 362.66 196.57 361.59 196.59 z M 362.91 180.84 C 383.44 180.84 402.35 203.12 390.88 213.78 C 386.52 217.83 390.11 237.93 396 242.47 C 398.3 244.24 418.37 247.78 440.62 250.34 C 478.49 254.7 481.74 254.68 490.94 249.62 C 506.57 241.04 512.22 246.53 512.22 270.31 C 512.22 292.8 506.81 299.09 493.25 292.34 C 487.13 289.3 477.74 289.2 449.78 291.84 C 406.64 295.92 398.6 298.49 395.75 309.03 C 393.06 319.01 396.46 470.7 400.56 523.25 C 403.68 563.14 408.84 585.9 416.72 594.59 C 422.21 600.64 455.09 609.66 470.97 609.47 C 500.26 609.12 535.33 589.35 579.66 548.19 C 585.06 543.17 589.09 539.55 593.09 535.97 C 575.83 531.09 550.28 528.38 550.28 528.38 L 641.72 495.53 C 641.72 495.53 635.98 593.04 633.12 598.75 C 629.88 602.26 624.56 573.82 615.69 555.03 C 614.29 557.62 613.35 559.68 611.62 562.66 C 567.86 638.26 529.26 668.79 470.19 674.44 C 439 677.42 401.42 684.66 391.38 689.66 C 387.69 691.49 380.76 699.24 375.97 706.84 C 371.18 714.45 365.3 720.66 362.91 720.66 C 360.52 720.66 354.64 714.45 349.84 706.84 C 345.05 699.24 338.09 691.49 334.41 689.66 C 324.36 684.66 286.82 677.42 255.62 674.44 C 199.7 669.09 162.07 640.94 121.09 573.88 C 113.48 592.33 108.7 615.94 105.72 612.72 C 102.86 607 97.16 509.5 97.16 509.5 L 188.56 542.38 C 188.56 542.38 164.75 544.87 147.56 549.44 C 191.21 589.7 225.87 609.12 254.84 609.47 C 270.72 609.66 303.58 600.64 309.06 594.59 C 316.95 585.9 322.1 563.14 325.22 523.25 C 329.32 470.7 332.76 319.01 330.06 309.03 C 327.22 298.49 319.18 295.92 276.03 291.84 C 248.07 289.2 238.69 289.3 232.56 292.34 C 219 299.09 213.56 292.8 213.56 270.31 C 213.56 246.53 219.24 241.04 234.88 249.62 C 244.07 254.68 247.29 254.7 285.16 250.34 C 307.42 247.78 327.51 244.24 329.81 242.47 C 335.7 237.93 339.3 217.83 334.94 213.78 C 323.47 203.12 342.37 180.84 362.91 180.84 z " style="fill:#000;fill-opacity:1.0"/><path style="fill:#ce1126;fill-opacity:1.0" d="M 355.16 695.66 C 351.99 690.67 345.98 684.5 341.8 681.96 C 332.02 676 295.99 668.53 260.83 665.17 C 201.92 659.54 165.93 631.18 122.53 556.22 L 106.8 529.05 L 139.81 559.3 C 186.36 601.98 217.87 618.46 253.41 618.73 C 276.71 618.9 307.85 610.72 315.88 602.32 C 330.91 586.6 335.7 544.08 338.78 399.11 C 341.16 287.16 342.08 290.76 309.66 285.67 C 297 283.69 271.76 281.85 253.56 281.59 L 220.48 281.11 L 220.46 269.21 C 220.45 259.07 221.3 257.65 226.25 259.58 C 238.75 264.46 247.39 264.5 288.44 259.82 C 336 254.39 341.52 251.78 344.93 233.02 C 347.09 221.17 347.37 220.96 361.47 220.96 C 375.57 220.96 375.86 221.17 378.02 233.02 C 381.42 251.78 386.95 254.39 434.5 259.82 C 475.56 264.5 484.2 264.46 496.7 259.58 C 501.65 257.65 502.5 259.07 502.49 269.21 L 502.47 281.11 L 469.38 281.59 C 451.19 281.85 425.95 283.69 413.29 285.67 C 380.86 290.76 381.79 287.16 384.17 399.11 C 387.24 544.08 392.03 586.6 407.06 602.32 C 415.09 610.72 446.24 618.9 469.54 618.73 C 505.08 618.46 536.58 600.97 583.14 558.29 L 625.23 517.94 L 613.55 544.1 C 570.19 619 521.12 659.45 462.12 665.24 C 403.81 670.97 382.15 677.49 370.11 692.95 L 360.93 704.73 L 355.16 695.66 z "/><path d="M 102.99 516.19 L 108.15 594.12 C 108.15 594.12 119.59 561.53 126.43 549.1 C 134.56 547.28 169.07 541.05 168.08 540.02 C 129.85 524.82 103.93 519.24 102.99 516.19 z " style="fill:#ce1126;fill-opacity:1.0;fill-rule:evenodd;stroke:none;stroke-width:1.0000000px;stroke-linecap:butt;stroke-linejoin:miter;stroke-opacity:1.0"/><path d="M 635.57 503.26 L 631.15 581.24 C 631.15 581.24 619.4 548.76 612.44 536.39 C 604.3 534.65 569.73 528.75 570.71 527.7 C 608.8 512.15 634.67 506.32 635.57 503.26 z " style="fill:#ce1126;fill-opacity:1.0;fill-rule:evenodd;stroke:none;stroke-width:1.0000000px;stroke-linecap:butt;stroke-linejoin:miter;stroke-opacity:1.0"/></g>
</g>
</g>
</g>
</svg>

