<?xml version="1.0" encoding="UTF-8" standalone="yes"?>
<svg xmlns="http://www.w3.org/2000/svg" xmlns:xlink="http://www.w3.org/1999/xlink" version="1.0" x="0" y="0" width="360" height="240">
<rect width="360" height="240" x="0" y="0" fill="#fcd116" />
<circle cx="180" cy="120" r="90" fill="#108042" />
<g transform="translate(180.000000,120.000000)">
<g transform="scale(1.041667)">
<g transform="translate(-50.000000,-76.000000)">

  <path d="M1.32 109.09C-0.01 97.3 5.17 92.46 1.16 81.08 4.54 82.77 7.45 86 8.95 88.75 11.23 76.48 12.64 63.4 11.54 51.78 16.57 53.07 20.03 62.11 22.15 66.39 27.81 48.96 29.3 33.22 25.29 23.86 30.4 24.42 33.39 30.55 36.85 37.5 40.23 32.9 39.68 23.37 39.68 13.52 40.23 8.84 41.01 3.6 43.84 1.1 46.59 23.13 57.13 21.27 63.02 45.81 65.14 40.97 65.54 35.72 64.99 29.1 71.9 33.22 77.96 48.63 81.18 70.67 84.24 69.05 85.66 62.84 86.84 55.82 93.52 65.58 95.88 77.77 92.5 92.3 90.77 96.42 89.67 100.61 90.22 105.29 93.05 103.52 93.99 99.24 95.64 95.69 96.82 100.93 98 107.15 96.98 111.67 93.6 137.82 64.42 142.25 45.99 142.12 35.67 142.04 5.03 136.12 1.32 109.09z" style="fill:#ff8430;stroke-width:2;stroke:#000"/>
</g>
</g>
</g>
</svg>

