<?xml version="1.0" encoding="UTF-8" standalone="yes"?>
<svg xmlns="http://www.w3.org/2000/svg" xmlns:xlink="http://www.w3.org/1999/xlink" version="1.0" x="0" y="0" width="360" height="240">
<rect width="360" height="240" x="0" y="0" fill="#00335b" />
  <rect width="360" height="26" x="0" y="26" fill="#ffffff" />
  <rect width="360" height="26" x="0" y="80" fill="#ffffff" />
  <rect width="360" height="26" x="0" y="133" fill="#ffffff" />
  <rect width="360" height="26" x="0" y="187" fill="#ffffff" />
<rect width="360" height="40" x="0" y="100" fill="#ce1126" />
  <rect width="40" height="240" x="100" y="0" fill="#ce1126" />
<g transform="translate(120.000000,120.000000)">
<g transform="scale(0.673401)">
<g transform="translate(-143.000000,-150.000000)">

  <g transform="matrix(0.360,0,0,0.324,16,0)" fill="#fcd116" stroke-width="8" stroke="#000">
    <path d="M403.1 604.7C404.5 542.7 419.9 485.2 448.4 430.6 523.1 273.4 751.3 277.2 701 469.4 682.5 540.2 619.5 581.9 544.7 589 550.1 570.4 579.8 504.4 555.8 491.5 517.5 492.9 469.9 559.2 458.4 590.8 456.8 595.3 457.2 600.5 455.4 605" fill="#fcd116" stroke-width="8" stroke="#000"/>
    <path d="M308.1 608.8C306.7 546.8 291.3 489.3 262.8 434.7 188.1 277.5-40.1 281.3 10.2 473.5 28.7 544.3 91.7 586 166.5 593.1 161.1 574.4 131.4 508.5 155.4 495.6 193.7 497 241.3 563.3 252.8 594.9 254.4 599.4 253.9 604.6 255.8 609.1" fill="#fcd116" stroke-width="8" stroke="#000"/>
    <path d="M351.2 8.5C272.5 93.4 219.6 191.5 242.4 306.6 255 370.1 285.4 428.9 306.9 490 320.4 528.4 323.8 568.5 322.2 608.8L389 608.8C385.8 568.2 392.8 528.8 404.3 490 424.7 428.5 455.9 370.1 468.8 306.6 492.9 187.8 436.3 98.2 360.4 8.9L355.7 3 351.2 8.5z" fill="#fcd116" stroke-width="8" stroke="#000"/>
    <path d="M288.9 655.8C274.9 695 218 766.6 187.8 787 179.9 792.3 225.3 784 245.6 779.5 272.2 773.7 306.8 745.3 306 755.4 305.9 801.2 318.8 877.7 352.4 912.8L355.5 916.2 358.8 912.8C392.4 873.7 405.1 804.8 405.2 755.4 404.4 745.3 439 773.7 465.6 779.5 485.9 784 531.3 792.3 523.4 787 493.2 766.6 436.3 695 422.3 655.8L288.9 655.8z" fill="#fcd116" stroke-width="8" stroke="#000"/>
    <rect width="317.9" height="51.5" x="196.9" y="606.8" fill="#fcd116" stroke-width="8" stroke="#000"/>
  </g>
</g>
</g>
</g>
</svg>

