<?xml version="1.0" encoding="UTF-8" standalone="yes"?>
<svg xmlns="http://www.w3.org/2000/svg" xmlns:xlink="http://www.w3.org/1999/xlink" version="1.0" x="0" y="0" width="360" height="240">
<rect width="360" height="80" x="0" y="0" fill="#108042" />
  <rect width="360" height="80" x="0" y="80" fill="#00335b" />
  <rect width="360" height="80" x="0" y="160" fill="#ff8430" />
<circle cx="180" cy="120" r="90" fill="#00335b" />
<g transform="translate(180.000000,120.000000)">
<g transform="scale(0.206327)">
<g transform="translate(-364.000000,-305.000000)">

  <g transform="translate(-4.53,-370.3)">
    <g transform="translate(2.596,153.67)" style="fill:#ffffff;stroke:#000">
      <path d="m236.89 783.51c2 4.94-5.1 2.09-14.1 2.31-15.56 0.38-29 1.17-45.89 24.81 15.51 4.86 33.89 10.91 51.99 7.99 20.41-3.29 17.59-31.08 30.84-26.18l-6-10.15zM74.38 453.98c0 0 0.53-5.26-6-7.15-6.53-1.89-24.26-2.25-26.31-20.08-1.44-12.44-2.01-37.8 2.28-48 11.19 5.1 23.22 12.98 29.4 27.08 3.58 8.18 2.68 30.53 8.95 23.87 1.37-2.21 5.89 5.57 5.89 5.57l-4.32 11.04zM97.43 397.48c1.59-13.21-24.44-4.18-26.2-29.44-1.85-26.63 7.54-34.05 14.64-51.41 9.4 8.94 15.46 18.53 19 35.5 1.88 8.98-4.95 29.28 6.93 21.63 1.11-1.21 2.37 8.94 2.37 8.94zM132.27 347.05c2.96-7.36-21.37-8.58-21.37-30.07 1.11-18.84 13.95-26.31 24.65-48.04 9.91 10.44 14.38 24.99 13.67 36.35-1.03 16.46-5.64 19.24-3.84 24.09 0.74 2.01 2.06 2.16 3.03 1.64 0.97-0.52-2.01 9.44-2.01 9.44zM175.85 309.3c2.34-2.26 2.55-4.84 0.95-8.31-1.66-3.6-12.9-12.18-12.43-22.47 0.46-10.22 8.57-21.38 16.99-31.13 7.82-9.06 15.91-11.85 19.24-13 3.33 16.7 6.07 19.02 4.09 30.2-4.06 22.98-18.31 31.07-10.79 32.81 2.98-1.19 0.6 3.87 0.6 3.87l-7.89 5.2zM222.76 280.16c1.41-1.82 1.27-5.06-0.22-6.39-1.49-1.34-7.45-9.45-6.18-15.76 2.68-13.31 16.79-21.62 21.73-25.2 4.91-3.57 7.96-6.74 11.02-10.14 8.09 6.1 6.17 25.51-1.79 34.16-3.72 3.72-7.61 6.56-8.95 9.68-1.34 3.12-1.46 6.37 0.18 6.37 1.64 0-4.92 4.77-4.92 4.77zM278.36 254.66c4.52-0.04 18.32 0.76 30.2 11.64-6.08 7.06-18.7 14.86-26.1 15.14-9.36 0.36-16.77-2.14-21.16-4.31-9.37-4.63-17.68-0.63-21.16 0.53-2.8 0.93 0.84-5.42 0.84-5.42 10.98-0.23 13.77-17.38 37.36-17.58zM222.1 287.91c-4.25 11.5 12.64 0.7 29.1 5.42 8.71 2.49 14.77 11.6 17.81 21.38-12.65 5.48-28.74 7.06-40.02 2.8-14-5.29-13.83-22.38-26.31-17.98l4.84-6.83zM175.8 319.47c-5.79 6.28 3.58 5.81 7.17 4.66 6.65-2.13 16.5-1.49 20.89-0.63 22.91 4.45 16.65 15.94 23.82 22.38-12.9 6.36-35.9 11.07-50.98 0.22-5.28-4.16-7.89-9-10.92-10.92-2.3-1.46-4.59-1.77-8.63 0.48-3.06 1.71-2.58-3.28-1.99-3.88 0.6-0.59 9.93-8.51 9.93-8.51zM131.51 363.65c0 0.74-1.79 3.94 1.04 4.16 2.83 0.22 19.28-12.14 35.29-9.53 16 2.6 25 12.06 25 12.06 0 0-8.99 15.89-28.71 18.24-19.27 2.3-26.39-0.78-33.36-8.05-2.81-2.92-9.23-2.6-10.79-0.45-1.56 2.16-3.65-5.8-3.57-6.1 0.07-0.3 15.11-10.33 15.11-10.33zM102.09 411.81c0.12 0.73-1.12 4.18 1.71 3.94 2.83-0.24 17.05-15.11 33.26-15.14 16.21-0.03 26.63 7.84 26.63 7.84 0 0-6.28 17.14-25.35 22.66-18.64 5.4-26.16 3.52-34.23-2.52-3.25-2.43-9.53-1.07-10.72 1.31-1.19 2.38-4.54-5.13-4.52-5.43 0.03-0.31 13.22-12.65 13.22-12.65zM83.79 462.76c0.21 0.71-0.6 4.28 2.17 3.7 2.78-0.58 15.08-17.07 31.17-19.08 16.09-2.01 27.39 4.54 27.39 4.54 0 0-4.14 17.77-22.4 25.58-17.84 7.63-25.54 6.68-34.28 1.67-3.52-2.02-9.59 0.1-10.48 2.61-0.89 2.51-5.14-4.54-5.15-4.84-0.01-0.31 11.58-14.17 11.58-14.17zM75.92 522.29c0.41 0.62 0.68 4.27 3.16 2.9 2.48-1.37 9.42-20.73 24.21-27.36 14.79-6.62 27.52-3.67 27.52-3.67 0 0 1.25 18.21-13.92 31.01-14.83 12.51-22.46 13.85-32.3 11.62-3.95-0.9-9.14 2.9-9.26 5.56-0.12 2.66-6.24-2.84-6.34-3.13-0.1-0.29 6.92-16.93 6.92-16.93zM80.65 578.49c0.49 0.56 1.28 4.13 3.54 2.43 2.26-1.71 6.38-21.86 20.08-30.51 13.7-8.65 26.72-7.53 26.72-7.53 0 0 3.82 17.85-9.38 32.67-12.9 14.49-20.27 16.9-30.32 16.08-4.04-0.33-8.63 4.17-8.37 6.82 0.26 2.65-6.58-1.92-6.72-2.2-0.14-0.27 4.45-17.74 4.45-17.74zM97.28 634.75c0.6 0.44 2.12 3.77 3.98 1.63 1.85-2.14 1.63-22.71 13.21-34.05 11.58-11.34 24.53-12.98 24.53-12.98 0 0 7.49 16.64-2.29 33.91-9.56 16.87-16.26 20.78-26.26 22.09-4.02 0.53-7.56 5.89-6.75 8.42 0.81 2.54-6.84-0.5-7.03-0.74-0.2-0.24 0.61-18.28 0.61-18.28zM127.39 686.58c0.69 0.28 3 3.12 4.26 0.59 1.26-2.54-4.09-22.4 4.29-36.26 8.38-13.87 20.52-18.68 20.52-18.68 0 0 11.41 14.25 6.25 33.41-5.04 18.72-10.56 24.17-19.91 27.93-3.76 1.51-5.86 7.59-4.43 9.84 1.42 2.25-6.75 1.22-6.99 1.04-0.25-0.18-3.97-17.86-3.97-17.86zM168.92 729.36c0.74 0.11 3.64 2.35 4.28-0.41 0.64-2.76-9.17-20.85-4.23-36.27 4.94-15.43 15.63-22.92 15.63-22.92 0 0 14.4 11.23 13.82 31.06-0.57 19.38-4.67 25.96-12.9 31.78-3.31 2.34-3.94 8.73-2.04 10.6 1.9 1.86-6.28 2.75-6.56 2.63-0.28-0.12-8-16.45-8-16.45zM218.96 762.95c0.74-0.1 4.14 1.26 4-1.57-0.15-2.83-14.55-17.53-14.05-33.71 0.5-16.19 8.73-26.33 8.73-26.33 0 0 16.94 6.84 21.83 26.06 4.78 18.79 2.65 26.24-3.66 34.09-2.54 3.16-1.38 9.48 0.96 10.75 2.34 1.27-5.28 4.37-5.59 4.33-0.3-0.04-12.22-13.62-12.22-13.62zM276.99 786.97c0.69-0.27 4.32 0.23 3.51-2.48-0.82-2.71-18.32-13.55-21.69-29.39-3.38-15.84 2.19-27.65 2.19-27.65 0 0 18.08 2.6 27.42 20.11 9.13 17.11 8.84 24.85 4.59 33.98-1.71 3.67 0.92 9.54 3.5 10.21 2.58 0.67-4.09 5.5-4.39 5.54-0.3 0.04-15.12-10.32-15.12-10.32zM64.76 513.57c0 0-0.71-5.24-7.49-5.57-6.79-0.33-24.12 3.42-30.25-13.45-4.28-11.77-10.72-36.3-8.9-47.23 12.07 2.37 25.59 7.25 34.87 19.54 5.38 7.13 9.68 29.08 14.23 21.15 0.82-2.46 7.03 4.06 7.03 4.06l-1.64 11.74zM68.72 571.18c0 0-1.91-4.93-8.58-3.68-6.68 1.25-22.66 8.93-32.55-6.06-6.9-10.46-18.87-32.82-19.65-43.87 12.29-0.5 26.58 1.11 38.47 10.91 6.89 5.68 16.19 26.04 18.77 17.26 0.22-2.59 7.78 2.32 7.78 2.32l1.14 11.8zM85.06 629.17c0 0-2.77-4.5-9.11-2.05-6.34 2.45-20.66 12.9-33.11-0.03-8.69-9.03-24.54-28.84-27.32-39.56 12-2.72 26.34-3.74 39.81 3.73 7.81 4.33 20.66 22.66 21.6 13.56-0.25-2.58 8.07 0.86 8.07 0.86l3.27 11.39zM111.53 683.01c0 0-3.48-3.98-9.32-0.53-5.85 3.46-18.25 16.12-32.67 5.42-10.06-7.47-28.96-24.41-33.46-34.52 11.38-4.66 25.36-8.03 39.88-2.87 8.42 2.99 24.11 18.95 23.54 9.82-0.67-2.51 8.1-0.48 8.1-0.48l5.1 10.7zM152.08 728.75c0 0-4.23-3.17-9.23 1.44-4.99 4.6-14.46 19.58-30.81 12.14-11.41-5.2-33.44-17.8-39.96-26.75 10.15-6.94 23.12-13.16 38.39-11.16 8.86 1.16 27.55 13.48 25.08 4.68-1.19-2.31 7.82-2.16 7.82-2.16l7.23 9.39zM205.34 767.12c0 0-5.14-2.47-9.77 2.86-4.63 5.33-12.33 21.6-31.36 16.79-13.28-3.36-39.36-12.37-47.98-20.18 9.83-8.44 22.83-16.6 39.76-17.01 9.82-0.24 32.23 9.01 28.03 0.71-1.68-2.1 8.12-3.36 8.12-3.36l9.47 8.15z" style="fill:#ffffff;stroke-linecap:round;stroke-linejoin:round;stroke-width:2;stroke:#000"/>
      <path d="m470.3 830.64c0 0-20.24-22.01-91.99-22.6C306.56 807.45 250 803.88 166.35 740.53 82.69 677.18 64.7 574.27 64.7 521.28c0-52.99 23.48-143.2 96.45-201.01 27.95-22.14 71.85-46.39 79.98-48.01 5.91-1.18 5.76 1.94 2.28 3.92-12.61 7.17-19.78 9.67-41.61 24.17-19.33 12.84-39.89 29.5-55.4 46.12-33.04 35.39-81.27 108.55-67.88 217.99 13.4 109.44 86.03 165.35 125.33 189.74 39.3 24.39 95.26 47.29 172.96 45.8 77.7-1.49 116.7 29.15 116.7 29.15z" style="fill:#ffffff;stroke-linecap:round;stroke-linejoin:round;stroke-width:2;stroke:#000"/>
      <path d="m502.01 783.51c-2 4.94 5.1 2.09 14.1 2.31 15.56 0.38 29 1.17 45.89 24.81-15.51 4.86-33.89 10.91-51.99 7.99-20.41-3.29-17.59-31.08-30.84-26.18l6-10.15zM664.52 453.98c0 0-0.53-5.26 6-7.15 6.53-1.89 24.26-2.25 26.31-20.08 1.44-12.44 2.01-37.8-2.28-48-11.19 5.1-23.22 12.98-29.4 27.08-3.58 8.18-2.68 30.53-8.95 23.87-1.37-2.21-5.89 5.57-5.89 5.57l4.32 11.04zM641.47 397.48c-1.59-13.21 24.44-4.18 26.2-29.44 1.85-26.63-7.54-34.05-14.64-51.41-9.4 8.94-15.46 18.53-19 35.5-1.88 8.98 4.95 29.28-6.93 21.63-1.11-1.21-2.37 8.94-2.37 8.94zM606.63 347.05c-2.96-7.36 21.37-8.58 21.37-30.07-1.11-18.84-13.95-26.31-24.65-48.04-9.91 10.44-14.38 24.99-13.67 36.35 1.03 16.46 5.64 19.24 3.84 24.09-0.74 2.01-2.06 2.16-3.03 1.64-0.97-0.52 2.01 9.44 2.01 9.44zM563.05 309.3c-2.34-2.26-2.55-4.84-0.95-8.31 1.66-3.6 12.9-12.18 12.43-22.47-0.46-10.22-8.57-21.38-16.99-31.13-7.82-9.06-15.91-11.85-19.24-13-3.33 16.7-6.07 19.02-4.09 30.2 4.06 22.98 18.31 31.07 10.79 32.81-2.98-1.19-0.6 3.87-0.6 3.87l7.89 5.2zM516.14 280.16c-1.41-1.82-1.27-5.06 0.22-6.39 1.49-1.34 7.45-9.45 6.18-15.76-2.68-13.31-16.79-21.62-21.73-25.2-4.91-3.57-7.96-6.74-11.02-10.14-8.09 6.1-6.17 25.51 1.79 34.16 3.72 3.72 7.61 6.56 8.95 9.68 1.34 3.12 1.46 6.37-0.18 6.37-1.64 0 4.92 4.77 4.92 4.77zM460.54 254.66c-4.52-0.04-18.32 0.76-30.2 11.64 6.08 7.06 18.7 14.86 26.1 15.14 9.36 0.36 16.77-2.14 21.16-4.31 9.37-4.63 17.68-0.63 21.16 0.53 2.8 0.93-0.84-5.42-0.84-5.42-10.98-0.23-13.77-17.38-37.36-17.58zM516.8 287.91c4.25 11.5-12.64 0.7-29.1 5.42-8.71 2.49-14.77 11.6-17.81 21.38 12.65 5.48 28.74 7.06 40.02 2.8 14-5.29 13.83-22.38 26.31-17.98l-4.84-6.83zM563.11 319.47c5.79 6.28-3.58 5.81-7.17 4.66-6.65-2.13-16.5-1.49-20.89-0.63-22.91 4.45-16.65 15.94-23.82 22.38 12.9 6.36 35.9 11.07 50.98 0.22 5.28-4.16 7.89-9 10.92-10.92 2.3-1.46 4.59-1.77 8.63 0.48 3.06 1.71 2.58-3.28 1.99-3.88-0.6-0.59-9.93-8.51-9.93-8.51zM607.39 363.65c0 0.74 1.79 3.94-1.04 4.16-2.83 0.22-19.28-12.14-35.29-9.53-16 2.6-25 12.06-25 12.06 0 0 8.99 15.89 28.71 18.24 19.27 2.3 26.39-0.78 33.36-8.05 2.81-2.92 9.23-2.6 10.79-0.45 1.56 2.16 3.65-5.8 3.57-6.1-0.07-0.3-15.11-10.33-15.11-10.33zM636.81 411.81c-0.12 0.73 1.12 4.18-1.71 3.94-2.83-0.24-17.05-15.11-33.26-15.14-16.21-0.03-26.63 7.84-26.63 7.84 0 0 6.28 17.14 25.35 22.66 18.64 5.4 26.16 3.52 34.23-2.52 3.25-2.43 9.53-1.07 10.72 1.31 1.19 2.38 4.54-5.13 4.52-5.43-0.02-0.31-13.22-12.65-13.22-12.65zM655.12 462.76c-0.21 0.71 0.6 4.28-2.17 3.7-2.78-0.58-15.08-17.07-31.17-19.08-16.09-2.01-27.39 4.54-27.39 4.54 0 0 4.14 17.77 22.4 25.58 17.84 7.63 25.54 6.68 34.28 1.67 3.52-2.02 9.59 0.1 10.48 2.61 0.89 2.51 5.14-4.54 5.15-4.84 0.01-0.31-11.58-14.17-11.58-14.17zM662.98 522.29c-0.41 0.62-0.68 4.27-3.16 2.9-2.48-1.37-9.42-20.73-24.21-27.36-14.79-6.62-27.52-3.67-27.52-3.67 0 0-1.25 18.21 13.92 31.01 14.83 12.51 22.46 13.85 32.3 11.62 3.95-0.9 9.14 2.9 9.26 5.56 0.12 2.66 6.24-2.84 6.34-3.13 0.1-0.29-6.92-16.93-6.92-16.93zM658.25 578.49c-0.49 0.56-1.28 4.13-3.54 2.43-2.26-1.71-6.38-21.86-20.08-30.51-13.7-8.65-26.72-7.53-26.72-7.53 0 0-3.82 17.85 9.38 32.67 12.9 14.49 20.27 16.9 30.32 16.08 4.04-0.33 8.63 4.17 8.37 6.82-0.26 2.65 6.58-1.92 6.72-2.2 0.14-0.27-4.45-17.74-4.45-17.74zM641.62 634.75c-0.6 0.44-2.12 3.77-3.98 1.63-1.85-2.14-1.63-22.71-13.21-34.05-11.58-11.34-24.53-12.98-24.53-12.98 0 0-7.49 16.64 2.29 33.91 9.56 16.87 16.26 20.78 26.26 22.09 4.02 0.53 7.56 5.89 6.75 8.42-0.81 2.54 6.84-0.5 7.03-0.74 0.2-0.24-0.61-18.28-0.61-18.28zM611.51 686.58c-0.69 0.28-3 3.12-4.26 0.59-1.26-2.54 4.09-22.4-4.29-36.26-8.38-13.87-20.52-18.68-20.52-18.68 0 0-11.41 14.25-6.25 33.41 5.04 18.72 10.56 24.17 19.91 27.93 3.76 1.51 5.86 7.59 4.43 9.84-1.42 2.25 6.75 1.22 6.99 1.04 0.25-0.18 3.97-17.86 3.97-17.86zM569.98 729.36c-0.74 0.11-3.64 2.35-4.28-0.41-0.64-2.76 9.17-20.85 4.23-36.27-4.94-15.43-15.63-22.92-15.63-22.92 0 0-14.4 11.23-13.82 31.06 0.57 19.38 4.67 25.96 12.9 31.78 3.31 2.34 3.94 8.73 2.04 10.6-1.9 1.86 6.28 2.75 6.56 2.63 0.28-0.12 8-16.45 8-16.45zM519.94 762.95c-0.74-0.1-4.14 1.26-4-1.57 0.15-2.83 14.55-17.53 14.05-33.71-0.5-16.19-8.73-26.33-8.73-26.33 0 0-16.94 6.84-21.83 26.06-4.78 18.79-2.65 26.24 3.66 34.09 2.54 3.16 1.38 9.48-0.96 10.75-2.34 1.27 5.28 4.37 5.59 4.33 0.3-0.04 12.22-13.62 12.22-13.62zM461.91 786.97c-0.69-0.27-4.32 0.23-3.51-2.48 0.82-2.71 18.32-13.55 21.69-29.39 3.38-15.84-2.19-27.65-2.19-27.65 0 0-18.08 2.6-27.42 20.11-9.13 17.11-8.84 24.85-4.59 33.98 1.71 3.67-0.92 9.54-3.5 10.21-2.58 0.67 4.09 5.5 4.39 5.54 0.3 0.04 15.12-10.32 15.12-10.32zM674.14 513.57c0 0 0.71-5.24 7.49-5.57 6.79-0.33 24.12 3.42 30.25-13.45 4.28-11.77 10.72-36.3 8.9-47.23-12.07 2.37-25.59 7.25-34.87 19.54-5.38 7.13-9.68 29.08-14.23 21.15-0.82-2.46-7.03 4.06-7.03 4.06l1.64 11.74zM670.18 571.18c0 0 1.91-4.93 8.58-3.68 6.68 1.25 22.66 8.93 32.55-6.06 6.9-10.46 18.87-32.82 19.65-43.87-12.29-0.5-26.58 1.11-38.47 10.91-6.89 5.68-16.19 26.04-18.77 17.26-0.22-2.59-7.78 2.32-7.78 2.32l-1.14 11.8zM653.84 629.17c0 0 2.77-4.5 9.11-2.05 6.34 2.45 20.66 12.9 33.11-0.03 8.69-9.03 24.54-28.84 27.32-39.56-12-2.72-26.34-3.74-39.81 3.73-7.81 4.33-20.66 22.66-21.6 13.56 0.25-2.58-8.07 0.86-8.07 0.86l-3.27 11.39zM627.37 683.01c0 0 3.48-3.98 9.32-0.53 5.85 3.46 18.25 16.12 32.67 5.42 10.06-7.47 28.96-24.41 33.46-34.52-11.38-4.66-25.36-8.03-39.88-2.87-8.42 2.99-24.11 18.95-23.54 9.82 0.67-2.51-8.1-0.48-8.1-0.48l-5.1 10.7zM586.82 728.75c0 0 4.23-3.17 9.23 1.44 4.99 4.6 14.46 19.58 30.81 12.14 11.41-5.2 33.44-17.8 39.96-26.75-10.15-6.94-23.12-13.16-38.39-11.16-8.86 1.16-27.55 13.48-25.08 4.68 1.19-2.31-7.82-2.16-7.82-2.16l-7.23 9.39zM533.56 767.12c0 0 5.14-2.47 9.77 2.86 4.63 5.33 12.33 21.6 31.36 16.79 13.28-3.36 39.36-12.37 47.98-20.18-9.83-8.44-22.83-16.6-39.76-17.01-9.82-0.24-32.23 9.01-28.03 0.71 1.68-2.1-8.12-3.36-8.12-3.36l-9.47 8.15z" style="fill:#ffffff;stroke-linecap:round;stroke-linejoin:round;stroke-width:2;stroke:#000"/>
      <path d="m268.6 830.64c0 0 20.24-22.01 91.99-22.6 71.75-0.59 128.31-4.16 211.96-67.51 83.65-63.35 101.65-166.26 101.65-219.25 0-52.99-23.48-143.2-96.45-201.01-27.95-22.14-71.85-46.39-79.98-48.01-5.91-1.18-5.76 1.94-2.28 3.92 12.61 7.17 19.78 9.67 41.61 24.17 19.33 12.84 39.89 29.5 55.4 46.12 33.04 35.39 81.27 108.55 67.88 217.99-13.4 109.44-86.03 165.35-125.33 189.74-39.3 24.39-95.26 47.29-172.96 45.8-77.7-1.49-116.7 29.15-116.7 29.15z" style="fill:#ffffff;stroke-linecap:round;stroke-linejoin:round;stroke-width:2;stroke:#000"/>
    </g>
  </g>
</g>
</g>
</g>
</svg>

