<?xml version="1.0" encoding="UTF-8" standalone="yes"?>
<svg xmlns="http://www.w3.org/2000/svg" xmlns:xlink="http://www.w3.org/1999/xlink" version="1.0" x="0" y="0" width="360" height="240">
<rect width="360" height="240" x="0" y="0" fill="#ff8430" />
  <polygon points="0,0 180,120 0,240" fill="#fcd116" />  <polygon points="360,0 180,120 360,240" fill="#fcd116" /> 
<g transform="translate(180.000000,120.000000)">
<g transform="scale(0.769231)">
<g transform="translate(-110.000000,-115.000000)">

  <use transform="matrix(-1,0,0,1,220.31844,-2.1921088e-6)" id="sword-trang-2" x="0" y="0" width="301" height="805.93" xlink:href="#sword-trang"/>
  <g transform="matrix(0.292869,-0.273105,-0.273105,-0.292869,192.41822,350.77341)" id="sword-trang" style="fill:#000000;stroke-width:4;stroke:#000">
    <path d="M254.81 227.22C265.03 185.61 277.96 185.61 287.67 227.22 297.38 268.83 300.38 320.04 289.67 361.65 278.96 403.26 261.53 403.26 250.81 361.65 240.1 320.04 244.6 268.83 254.81 227.22z"/>
    <path d="M250 371.74L291.09 371.74 285.14 897.26 270.55 942.69 255.95 897.26 250 371.74z"/>
    <path d="M268.89 376.49L270.55 938.18 272.2 376.49 268.89 376.49z" fill="#000"/>
    <rect width="161.87" height="21.38" x="189.61" y="358.07" />
    <path d="M299.34 233.12C299.34 249.03 286.45 261.92 270.55 261.92 254.64 261.92 241.75 249.03 241.76 233.12 241.75 217.22 254.64 204.32 270.55 204.32 286.45 204.32 299.34 217.22 299.34 233.12L299.34 233.12z"/>
    <path d="M282.7 233.12C282.7 239.84 277.26 245.28 270.55 245.28 263.83 245.28 258.39 239.84 258.4 233.12 258.39 226.41 263.83 220.97 270.55 220.97 277.26 220.97 282.7 226.41 282.7 233.12L282.7 233.12z"/>
  </g>
</g>
</g>
</g>
</svg>

