<?xml version="1.0" encoding="UTF-8" standalone="yes"?>
<svg xmlns="http://www.w3.org/2000/svg" xmlns:xlink="http://www.w3.org/1999/xlink" version="1.0" x="0" y="0" width="360" height="240">
<rect width="180" height="240" x="0" y="0" fill="#75aadb" />
  <rect width="180" height="240" x="180" y="0" fill="#ffffff" />
<rect width="360" height="40" x="0" y="100" fill="#000000" />
  <rect width="40" height="240" x="100" y="0" fill="#000000" />
<g transform="translate(120.000000,120.000000)">
<g transform="scale(0.458716)">
<g transform="translate(-218.000000,-218.000000)">
<g transform="translate(-162.1562,-270.2187)"><path d="M360 270.22L360 451.66 341.78 451.66 341.78 468.06 162.16 468.06 162.16 508.06 341.78 508.06 341.78 526.66 360 526.66 360 705.94 400 705.94 400 526.66 416.78 526.66 416.78 508.06 597.84 508.06 597.84 468.06 416.78 468.06 416.78 451.66 400 451.66 400 270.22 360 270.22zM365 473.94L393 473.94 393 501.94 365 501.94 365 473.94zM288.41 289.41L253.75 309.41 295.06 380.97C305.61 372.86 317.36 366.25 330 361.44L288.41 289.41zM471.59 289.41L429.69 362C442.25 366.96 453.9 373.74 464.34 381.97L506.25 309.41 471.59 289.41zM201.34 361.81L181.34 396.47 251.75 437.13C256.97 424.67 263.98 413.16 272.44 402.88L201.34 361.81zM558.66 361.81L486.28 403.59C494.66 413.93 501.61 425.48 506.75 437.97L578.66 396.47 558.66 361.81zM508.25 539.03C503.48 551.69 496.92 563.45 488.84 574.03L558.66 614.31 578.66 579.69 508.25 539.03zM250.22 539.91L181.34 579.69 201.34 614.31 269.88 574.75C261.74 564.23 255.07 552.52 250.22 539.91zM466.22 597.41C455.9 605.82 444.35 612.79 431.88 617.97L471.59 686.75 506.25 666.75 466.22 597.41zM293.19 598.44L253.75 666.75 288.41 686.75 327.78 618.56C315.24 613.53 303.6 606.73 293.19 598.44z" fill="#000000"/><path d="M535.38 487.69C535.38 576.39 464.83 648.3 377.8 648.3 290.77 648.3 220.21 576.39 220.21 487.69 220.21 398.98 290.77 327.07 377.8 327.07 464.83 327.07 535.38 398.98 535.38 487.69L535.38 487.69z" transform="matrix(0.998411,0,0,0.979573,1.531874,12.56545)" style="fill:none;stroke-width:39.77;stroke:#000000"/></g></g>
</g>
</g>
</svg>

