<?xml version="1.0" encoding="UTF-8" standalone="yes"?>
<svg xmlns="http://www.w3.org/2000/svg" xmlns:xlink="http://www.w3.org/1999/xlink" version="1.0" x="0" y="0" width="360" height="240">
<rect width="360" height="240" x="0" y="0" fill="#fcd116" />
<g transform="translate(180.000000,120.000000)">
<g transform="scale(0.571429)">
<g transform="translate(-200.000000,-175.000000)">

 <g id="key" transform="matrix(1,0,0,-1,-140,420)">
  <path stroke-width="2.5" fill="#ce1126" stroke="#000" d="m208.004333 366.468964l-3.690613 3.386597c-1.042236 1.233887-1.568787 1.113922-3.019104 0.742615 -2.78772-0.495331-5.760376 0.271729-8.008972 2.334961 -3.829529 3.514038-4.110229 9.469299-0.59613 13.298859 3.513977 3.829437 9.495178 4.086426 13.324646 0.572388 2.10376-1.930481 3.119019-4.598969 3.028625-7.246948 -0.252319-1.577484-0.492065-2.170319 0.664429-3.231537l3.98584-3.657501 -5.688721-6.199432zM221.115967 272.073792 221.115967 272.073792 221.115967 272.073792"/>
  <path stroke-width="2.5" fill="#ce1126" fill-rule="evenodd" stroke="#000" d="m221.115967 272.073792l-14.052063 12.894501 13.652954 14.878662 -9.092468 8.343506 -13.653015-14.878662 -3.435486 3.152527 -4.003845 3.673981 -3.435486 3.152527 13.653015 14.878632 -9.092529 8.343506 -13.653015-14.878662 -14.052063 12.894501 17.445496 19.011597 6.476563-2.897797 4.551025 4.959534 -3.442566 6.204193 6.826477 7.439301 18.185059-16.686981 8.343506 9.092499 20.793884-19.081024 -8.343506-9.092499 18.184998-16.687012 -6.826477-7.439301 -6.476563 2.897827 -4.550964-4.959564 3.442505-6.204193 -17.445435-19.011597z"/>
  <path stroke-width="2.5" fill="#ce1126" fill-rule="evenodd" stroke="#000" d="m454.420898 146.084946c-3.81311-4.155457-9.705261-5.487808-12.801453-2.646683 -2.00061 1.835815-2.45575 4.871521-1.505432 7.900314l-2.763916 2.53624 -3.839905-4.184631c-9.197327 6.086395-21.73175 4.784744-29.422424-3.59639 -8.523315-9.288467-7.901184-23.772873 1.387329-32.296234 9.288574-8.523376 23.74707-7.877396 32.270386 1.411057 4.092041 4.459381 6.020325 10.105942 5.950134 15.71405l12.742615-0.321167c-0.744263-5.525497 1.133423-11.317657 5.54834-15.368881 2.688721-2.467285 5.936951-3.937714 9.296936-4.439102 0.89801-0.133926 1.808533-0.210587 2.713562-0.205902 0.135132 0.000656 0.260925 0.013123 0.396118 0.016922 0.124634 0.00351 0.248291-0.014801 0.372681-0.008713 0.523987 0.026031 1.060791 0.094788 1.58075 0.167053 0.559387 0.077896 1.122803 0.188797 1.673645 0.320129 0.098267 0.023331 0.196899 0.037079 0.294922 0.062195 0.450806 0.115692 0.880676 0.252625 1.322632 0.404297 1.075928 0.368973 2.138855 0.868835 3.138489 1.449799 0.417053 0.242386 0.832703 0.493454 1.232361 0.772598 0.155884 0.10881 0.303711 0.227783 0.456604 0.342117 0.394958 0.295532 0.776672 0.610138 1.150513 0.942688 0.43634 0.388046 0.858826 0.782104 1.262634 1.220474 0.008179 0.008881 0.015747 0.017136 0.023682 0.025833 0.4021 0.43988 0.758545 0.894791 1.107727 1.362625 0.299255 0.400986 0.580017 0.808212 0.840515 1.227112 0.037476 0.059891 0.079712 0.118347 0.116455 0.17865 0.011841 0.019592 0.035522 0.032089 0.047363 0.051666 0.063965 0.106003 0.098206 0.222504 0.159607 0.329391 0.228943 0.400482 0.447571 0.80542 0.642395 1.218597 0.493164 1.045898 0.876282 2.121826 1.151733 3.22551 0.025085 0.100021 0.062988 0.201096 0.086304 0.301468 0.104492 0.452606 0.195068 0.918152 0.263428 1.376007 0.147522 0.988724 0.215881 1.965012 0.195374 2.961121 -0.002563 0.132278-0.011536 0.264099-0.017029 0.396271 -0.024292 0.563705-0.069885 1.146286-0.147705 1.705734 -0.001953 0.017075 0.000244 0.032837-0.002075 0.0495 -0.077148 0.543045-0.190491 1.08902-0.317871 1.623978 -0.78772 3.304657-2.53125 6.414764-5.220093 8.88205 -4.414917 4.051224-10.346802 5.425171-15.788025 4.2099l-1.41272 12.668152c5.593445 0.410919 11.053833 2.81636 15.145813 7.275635 8.523376 9.288559 7.927002 23.749146-1.36145 32.272629 -9.288574 8.523361-23.772949 7.901077-32.296387-1.387466 -7.690613-8.381042-7.912537-20.980881-1.059814-29.622223l-3.839966-4.184723 2.763916-2.53624c2.936157 1.206482 5.999634 1.013306 8.000244-0.822525 3.096191-2.841125 2.273987-8.82579-1.53894-12.981049l0 0.000168zm40.105774-36.873398c-0.512146-0.554764-1.049683-1.077927-1.594421-1.582108 -0.485107-0.448929-0.973694-0.895844-1.482483-1.304413 -0.065247-0.052368-0.126038-0.105331-0.191711-0.15715 -0.075195-0.059418-0.165527-0.100555-0.241272-0.159241 -0.512634-0.395554-1.030701-0.778687-1.564087-1.13414 -0.567566-0.378235-1.152161-0.734497-1.740723-1.067291 -0.24823-0.140594-0.500122-0.271896-0.751709-0.404388 -0.078918-0.041519-0.164246-0.069153-0.243469-0.109833 -0.37854-0.194656-0.756165-0.393631-1.141724-0.570114 -0.244385-0.111816-0.483215-0.224594-0.730103-0.329025 -0.273254-0.115448-0.553345-0.22702-0.829468-0.333481 -0.097717-0.037628-0.194763-0.07518-0.292969-0.111832 -0.227051-0.084534-0.455872-0.149277-0.684937-0.227921 -0.44342-0.152191-0.870972-0.324295-1.320435-0.453735 -0.423828-0.122345-0.848755-0.200806-1.277161-0.302994 -0.397522-0.094696-0.803223-0.197708-1.204041-0.27504 -0.482422-0.093002-0.967712-0.168457-1.453857-0.23613 -0.354553-0.049347-0.70575-0.084305-1.061646-0.119949 -0.091187-0.009262-0.180237-0.028259-0.271484-0.036575 -0.338867-0.030655-0.674438-0.04982-1.014343-0.06839 -0.489746-0.026627-0.971802-0.036865-1.46228-0.037903 -0.066406-0.000198-0.131775-0.008835-0.19812-0.008514 -0.448669 0.002213-0.893372 0.017975-1.341736 0.041519 -0.406555 0.021393-0.813293 0.032715-1.218933 0.071701 -0.489197 0.047058-0.986023 0.136978-1.472961 0.209671 -0.441772 0.065964-0.885376 0.128967-1.32428 0.216141 -0.886292 0.175781-1.763489 0.393753-2.633484 0.656067 -0.440796 0.132751-0.873901 0.285004-1.309265 0.439926 -0.429016 0.152771-0.838806 0.317322-1.26178 0.491669 -0.082886 0.034271-0.16925 0.053467-0.251831 0.088531 -2.869263 1.215881-5.586853 2.937866-8.013 5.164215 -2.299133 2.109711-4.135498 4.517242-5.565613 7.105499 -1.207031-2.151291-2.662598-4.198013-4.402954-6.094574 -12.186951-13.28096-32.859009-14.193787-46.140015-2.006958 -13.280762 12.187119-14.170044 32.884933-1.983154 46.165878 7.436768 8.10437 18.043884 11.583847 28.191833 10.292511 -4.66394 4.149796-11.554871 4.868179-17.707825 6.732773l-1.45874 10.85495 -0.927734 0.803879c-0.318726-0.724564-0.737244-1.425644-1.301819-2.040939 -2.766418-3.014755-7.437073-3.215424-10.451782-0.449081 -3.014709 2.766342-3.24115 7.460739-0.474731 10.475494 0.510742 0.55658 1.108459 1.00058 1.727905 1.364487l-191.347717 174.823792 11.069336 12.06308 190.589172-175.650497c0.309448 0.648346 0.700562 1.281982 1.211365 1.838654 2.766296 3.014664 7.462769 3.191528 10.477417 0.425171 3.014709-2.766342 3.215393-7.436935 0.449097-10.451584 -0.564697-0.615402-1.227417-1.09256-1.921814-1.472076l0.880371-0.855438 10.940063-0.522552c2.385376-5.970306 3.692139-12.774216 8.226501-17.06517 -2.156738 9.999908 0.400269 20.866211 7.837036 28.970581 12.18689 13.280945 32.884644 14.169876 46.165771 1.983154 13.280762-12.187134 14.144226-32.861115 1.957275-46.142075 -1.740295-1.896561-3.654663-3.522278-5.694519-4.909424 2.701233-1.202957 5.257507-2.825989 7.55658-4.935684 2.42627-2.226349 4.374878-4.786346 5.832336-7.540665 0.041809-0.078888 0.068848-0.164215 0.109741-0.243423 0.07074-0.136642 0.12323-0.275879 0.191528-0.413483 0.133118-0.268555 0.282471-0.529602 0.406555-0.801453 0.047302-0.103622 0.091736-0.212616 0.137634-0.31665 0.050842-0.11467 0.114502-0.22493 0.163513-0.340363 0.194641-0.456985 0.362-0.926376 0.531189-1.39151 0.054077-0.148285 0.116333-0.290359 0.167908-0.439316 0.005005-0.015411-0.003296-0.034393 0.002075-0.0495 0.047241-0.137589 0.096863-0.277542 0.141907-0.415726 0.155823-0.478271 0.304749-0.960617 0.434265-1.445297 0.011047-0.040955 0.019348-0.081665 0.030029-0.122742 0.053772-0.204483 0.101379-0.408401 0.150513-0.613846 0.114136-0.478928 0.24646-0.966095 0.335205-1.449554 0.108459-0.590607 0.18042-1.205124 0.250977-1.800552 0.012695-0.10733 0.027222-0.213425 0.038635-0.320908 0.064392-0.601837 0.100464-1.176712 0.12616-1.781097 0.019165-0.448303 0.01001-0.890762 0.007874-1.339554 -0.002258-0.444931-0.01825-0.89711-0.041565-1.341675 -0.016602-0.31543-0.031494-0.630554-0.058655-0.945404 -0.016418-0.190521-0.029541-0.382553-0.049866-0.57283 -0.036926-0.34584-0.079834-0.678162-0.129761-1.022888 -0.009644-0.06749-0.030823-0.132843-0.041016-0.200241 -0.131714-0.869415-0.295654-1.72081-0.509583-2.577606 -0.103333-0.413879-0.22052-0.845398-0.34314-1.255371 -0.062317-0.207993-0.128967-0.421967-0.196289-0.628754 -0.096252-0.296066-0.178345-0.587219-0.284729-0.880676 -0.171692-0.473648-0.362244-0.922729-0.560669-1.388779 -0.116943-0.275345-0.259644-0.563004-0.385925-0.835403 -0.264832-0.568619-0.539551-1.144775-0.845093-1.698761 -0.293152-0.533768-0.593872-1.059799-0.924744-1.57811 -0.112976-0.177109-0.231628-0.360825-0.349182-0.536026 -0.359436-0.536102-0.747925-1.046692-1.148682-1.562927 -0.459595-0.591965-0.925476-1.161423-1.439514-1.724258 -0.015869-0.017395-0.031494-0.034302-0.047424-0.051666 -0.007874-0.008575-0.015808-0.017258-0.023743-0.025833l-0.000061-0.000275z"/>
 </g>
 <use transform="matrix(-1,0,0,1,400,0)" id="key2" xlink:href="#key" />
</g>
</g>
</g>
</svg>

